# xmcd
#
# Track frame offsets:
#	150
#	17170
#	35109
#	51306
#	70763
#	90528
#	105591
#	124756
#	137088
#	153146
#
# Disc length: 2446 seconds
#
# Revision: 17
# Processed by: cddbd v1.5.2PL0 Copyright (c) Steve Scherf et al.
# Submitted via: Jack! The Knife 20 Magnifico
#
DISCID=81098c0a
DTITLE=Venom - Temples Of Ice
DYEAR=1991
DGENRE=Metal
TTITLE0=Tribes
TTITLE1=Even In Heaven
TTITLE2=Trinity MCMXLV 0530
TTITLE3=In Memory Of (Paul Miller 1964-90)
TTITLE4=Faerie Tale
TTITLE5=Playtime
TTITLE6=Acid
TTITLE7=Arachnid
TTITLE8=Speed King
TTITLE9=Temples Of Ice
EXTD=Kevin Ridley and Venom
EXTT0=Dolan, Dunn, Barnes, Bray
EXTT1=Dolan, Dunn, Barnes, Bray
EXTT2=Dolan, Dunn, Barnes, Bray
EXTT3=Dolan, Dunn, Barnes, Bray
EXTT4=Dolan, Dunn, Barnes, Bray
EXTT5=Dolan, Dunn, Barnes, Bray
EXTT6=Dolan, Dunn, Barnes, Bray
EXTT7=Dolan, Dunn, Barnes, Bray
EXTT8=Blackmore, Glover, Lord, Paice, Gillan
EXTT9=Dolan, Dunn, Barnes, Bray
PLAYORDER=
